<svg width="40" height="38" viewBox="0 0 40 38" fill="none" xmlns="http://www.w3.org/2000/svg">
<path d="M14.7189 0.886992C11.3809 0.868766 8.13121 4.18585 9.61476 8.30486H4.01613C3.07932 8.30486 2.18087 8.68891 1.51845 9.3725C0.856019 10.0561 0.483871 10.9833 0.483871 11.95V15.5952C0.483871 16.0785 0.669945 16.5421 1.00116 16.8839C1.33237 17.2257 1.78159 17.4177 2.25 17.4177H18.1452V11.95H21.6774V17.4177H37.5726C38.041 17.4177 38.4902 17.2257 38.8214 16.8839C39.1526 16.5421 39.3387 16.0785 39.3387 15.5952V11.95C39.3387 10.9833 38.9666 10.0561 38.3041 9.3725C37.6417 8.68891 36.7433 8.30486 35.8064 8.30486H30.2078C32.2742 2.34505 24.5032 -1.86509 20.918 3.27456L19.9113 4.65972L18.9046 3.23811C17.7919 1.61602 16.2554 0.905218 14.7189 0.886992ZM14.6129 4.65972C16.1848 4.65972 16.9795 6.6281 15.8669 7.77632C14.7542 8.92454 12.8468 8.10438 12.8468 6.48229C12.8468 5.99892 13.0328 5.53534 13.3641 5.19354C13.6953 4.85174 14.1445 4.65972 14.6129 4.65972ZM25.2097 4.65972C26.7815 4.65972 27.5763 6.6281 26.4636 7.77632C25.351 8.92454 23.4435 8.10438 23.4435 6.48229C23.4435 5.99892 23.6296 5.53534 23.9608 5.19354C24.292 4.85174 24.7413 4.65972 25.2097 4.65972ZM2.25 19.2403V33.8209C2.25 34.7876 2.62215 35.7148 3.28457 36.3984C3.947 37.082 4.84545 37.466 5.78226 37.466H34.0403C34.9771 37.466 35.8756 37.082 36.538 36.3984C37.2004 35.7148 37.5726 34.7876 37.5726 33.8209V19.2403H21.6774V33.8209H18.1452V19.2403H2.25Z" fill="white"/>
</svg>
